<svg xmlns="http://www.w3.org/2000/svg" width="1062" height="394" viewBox="0 0 1062 394">
  <title>overlay2</title>
  <g id="Lag_2" data-name="Lag 2">
    <path d="M431.38,0l.56,28.45S435.51,48,418.37,57.82c0,0-10.9,13.57-4.45,30.93,0,0,1.34,5.56,15.35,8.46l-3.12,44.06h-4.09v-9.35s-7.25-2-9,2.89,3.12,9.12,3.12,9.12,4.67,8.23.67,20.47-17.13,38.94-17.13,38.94l-10.46,18.91s1.56,7.79-4.67,11.13l-17.13,36a12.94,12.94,0,0,1-4.67,10.9l-7.57,16.24L364.3,301l16.91-34.71,9.57,4.45L371,314.61s6.9,1.34,1.11,12-4,8.9-4,8.9-1.11,4.45-10.24,4l-5.34,10.68,27.37,9.12H391L406.36,370l6,1.78,3.56-3.12-29.82-19.36,13.8-25.81,27.15,14-10.9,24.25,4.45,4.9,11.66-26.26V326.85l-24.78-12,9.79-24.25L413,288.35l9.35-19.8,3.34,1.56L432.25,255l18.39,8.46,1.11-2.89-18-9.12,6-12,26.7,14.46-2,5.79,2,1.11,6.9-15.35,18,8.23-4,9.79,4.9,2L500.93,249l-24-7.12,14.46-28.71.22-22.25S484,192,484.24,180s7.12-11.13,7.12-11.13V150.39l-20.25-.22V142.6l19.8.45-.22-6.68,18-7.79L519,134.81l2.45,31.82-4.45,4.9,15.8,68.54,4.9.22v-2.67l-15.35-56.74s-4.61-11.79,8.71-10l6.64.67,5.12-9.35V156s-10.24-6.23-4.45-20l1.34-2.89-40.05-13.35,3.78-10.24,39.39,12.46,1.78-9.57L503.6,98.76l2.23-29.15L551,83.41l.89-2.67L507.6,66.5l2.67-33.82s1.11-10,13.8-4l8.23,3.78,6.45-.22s-10.24-10,3.12-15.8c0,0-33.38-8.83-30.71-16.43Z" fill="#81daef"/>
    <polygon points="307.74 394 340.94 365.05 348.52 355 377.54 363.16 372.61 368.47 389.11 383.07 384.18 387.25 367.11 371.8 339.04 394 307.74 394" fill="#81daef"/>
    <polygon points="463.58 263.01 466.07 264.25 452.2 294.14 456.85 296.39 445.14 319.55 436.93 315.56 463.58 263.01" fill="#81daef"/>
    <path d="M537.8,247.32H508.91l-5.23,10,15.19,8.22.75,36.86-11,45.08,1.74.88-6.72,20.22,7.5,3.26s-3.28,19.32-9.94,22.2h9.68s18-37.52,20.08-50.53,6.8-95.27,6.8-95.27Z" fill="#81daef"/>
    <path d="M573.16,240.22s-6.71.21-12.38,12.38c0,0-4.2,2.94-5.46,5.88s-2.94,13.43,3.36,15.53c0,0,5.52,6.51,5,12.17,0,0,7,2.31,6.37,7.76s-2.45,9.86-6.37,11.75c0,0,.49,5.88-7.69,7.13s-9.82,23.08-4.07,27.28,9.94,13.85,8.06,17.63-5.88,8.6-22.14,12.38c0,0-11.64,13.77-6,23.88h24.76s11.12-8.15,12.8-53.26c0,0-2.31-15.95,6.09-35.25C575.47,305.49,576.94,235.82,573.16,240.22Z" fill="#81daef"/>
    <path d="M671.93,314.17,713,394h39.61l-37.84-77s-1.41-14.86,28.65-34.67,94.79-60.48,94.79-60.48l17,30.77,20.16-21.22L864,210.9s-1.06-3.54,2.12-1.77,9.2,13.79,9.2,13.79,11.67,7,12,17.1l7.07,15.44s.35,3.18-2.48,1.77-14.5-23-14.5-23L856.2,256.88l23.34,58,8-.16.16,4.39-9.59.16-39.64,14.3.49,19.66-3.74-.16-.16-19.17s-20.15,4.22-5.52,19l.49,15.27,4.71.16.16-3.57,4.87.16.16,10.56,43.51,12.85,13.66-35.66-3-8.35,3-1.76,3.88,6.63,41.29-5.88,3-.38L979.43,394H1062V0H776.6l5.33,17.84s1.78,6.75-5,9.6l-50.47,32s-8.53,3.91-7.11,11.73-10,31.63-10,31.63-5,6-2.84,7.82,1.42,3.2,5,3.91a7.39,7.39,0,0,1,5,3.55s-.71,2.13-4.26,1.78S697,112.38,697,112.38l-40.16,13.15L662.16,149l-7.46,2.84-5.33-16.35-3.55,1.42,7.11,21.68-5,2.13-7.11-20.61-4.62,1.78,8.53,24.88-4.26,1.78-8.53-24.88-2.84,1.42,7.11,26.66-4.26,1.07-7.46-25.23h-4.62l6.4,24.17h-4.62l-6.4-23.46h-3.91L618.08,171h-4.62l-6.75-22.75-2.84.36,5.33,21.68h-5.33L600,149l-3.2-.36,3.91,21.68-3.91.36L592.14,149h-1.78l1.78,22h-3.91l-1.78-22.75h-2.13v29.85h33.41s16.7-1.87,21.32,7.77l77.84-38.69L725.42,160l5.69-3.91s-13.15-10-3.55-22.75,17.42-6.4,17.42-6.4,8.89,4.62,8.53,14.22l53.67-32.7,35.54,57.93L726.49,240l-59,65.7Z" fill="#81daef"/>
    <path d="M717,0V20.49a12.3,12.3,0,0,0,10.18,11.6s11.6,7.07,28.28,0,19-11.88,19-11.88,4.24-5.82-2.55-13L770.71,0Z" fill="#81daef"/>
    <polygon points="667.47 78.75 664.92 85.83 706.79 100.25 709.62 90.92 667.47 78.75" fill="#81daef"/>
    <path d="M0,163.5s45.48-60.49,66.28-78l19.38,21.27S13.59,191.86,0,231.08Z" fill="#81daef"/>
    <path d="M545.48,189.69s2.55-15.56,13.58-2.55,10.75,39.6,10.75,39.6-1.7,5.09-8.49,4.24A8,8,0,0,1,554,224.2s-5.37-3.68-11-1.13c0,0-10.15-6.22-5.5-21.78C537.43,201.29,544.63,192.7,545.48,189.69Z" fill="#81daef"/>
    <polygon points="72.51 74.68 96.81 93.58 131.91 56.23 143.62 30.12 123.81 4.92 72.51 74.68" fill="#81daef"/>
    <polygon points="128.31 2.67 147.22 25.17 179.62 0 128.31 0 128.31 2.67" fill="#81daef"/>
  </g>
  <g id="Lag_7" data-name="Lag 7">
    <polyline points="390.33 451.69 400.19 442.2 411.5 439.28 447.27 387.08 450.19 377.23 448.37 367.74 509.32 241.81 542.91 243.63 546.19 297.29 538.16 346.75 519.18 391.1 477.2 440.74 466.62 444.76 451.65 443.66 422.3 423.07" fill="none" stroke="#ed2f6a" stroke-miterlimit="10" stroke-width="2"/>
    <polyline points="441.99 395.39 439.63 382.57 411.54 364.44 424.09 338.88 414.54 334.05 413.39 336.24 400.95 330.36 390.94 348.78 412.12 361.44 412.59 361.67" fill="none" stroke="#ed2f6a" stroke-miterlimit="10" stroke-width="2"/>
    <polyline points="452.95 358.72 506.69 383.05 500.32 398.67 476.45 426.74 470.38 434.55 459.38 434.55 449.69 388.26 447.71 386.52" fill="none" stroke="#ed2f6a" stroke-miterlimit="10" stroke-width="2"/>
    <polyline points="456.14 417.56 469.18 416.48 474.83 409.88 490.21 375.8" fill="none" stroke="#ed2f6a" stroke-miterlimit="10" stroke-width="2"/>
    <line x1="499.96" y1="398.53" x2="483.61" y2="390.73" fill="none" stroke="#ed2f6a" stroke-miterlimit="10" stroke-width="2"/>
    <line x1="503.39" y1="390.55" x2="487.31" y2="382.49" fill="none" stroke="#ed2f6a" stroke-miterlimit="10" stroke-width="2"/>
    <polyline points="448.74 368.23 456.55 365.62 458.71 361.62" fill="none" stroke="#ed2f6a" stroke-miterlimit="10" stroke-width="2"/>
    <polyline points="416.48 306.2 419.86 293.02 441.57 303.52" fill="none" stroke="#ed2f6a" stroke-miterlimit="10" stroke-width="2"/>
    <polyline points="443.6 299.19 417.52 285.91 424.63 270.98 450.77 283.09" fill="none" stroke="#ed2f6a" stroke-miterlimit="10" stroke-width="2"/>
    <line x1="420.54" y1="287.74" x2="420.07" y2="292.81" fill="none" stroke="#ed2f6a" stroke-miterlimit="10" stroke-width="2"/>
    <polyline points="458.12 268 436.07 257.47 428.02 272.23" fill="none" stroke="#ed2f6a" stroke-miterlimit="10" stroke-width="2"/>
    <polyline points="430.57 267.97 433.96 267.74 438.29 258.84" fill="none" stroke="#ed2f6a" stroke-miterlimit="10" stroke-width="2"/>
    <line x1="453.59" y1="277.57" x2="434.14" y2="267.5" fill="none" stroke="#ed2f6a" stroke-miterlimit="10" stroke-width="2"/>
    <polyline points="436.38 257.23 440.2 251.02 444.53 250.28 462.96 260.05" fill="none" stroke="#ed2f6a" stroke-miterlimit="10" stroke-width="2"/>
    <polyline points="399.96 353.94 406.42 342.27 418.83 349.05" fill="none" stroke="#ed2f6a" stroke-miterlimit="10" stroke-width="2"/>
    <line x1="500.11" y1="261.42" x2="512.5" y2="267.55" fill="none" stroke="#ed2f6a" stroke-miterlimit="10" stroke-width="2"/>
    <line x1="511.28" y1="282.27" x2="471.24" y2="264.15" fill="none" stroke="#ed2f6a" stroke-miterlimit="10" stroke-width="2"/>
    <line x1="487.32" y1="288" x2="511.28" y2="298.89" fill="none" stroke="#ed2f6a" stroke-miterlimit="10" stroke-width="2"/>
    <line x1="507.59" y1="316.44" x2="457.31" y2="292.19" fill="none" stroke="#ed2f6a" stroke-miterlimit="10" stroke-width="2"/>
    <line x1="486.03" y1="305.69" x2="487.96" y2="301.75" fill="none" stroke="#ed2f6a" stroke-miterlimit="10" stroke-width="2"/>
    <polyline points="491.98 309.2 488.97 315.61 488.97 318.94 505.05 326.25" fill="none" stroke="#ed2f6a" stroke-miterlimit="10" stroke-width="2"/>
    <polyline points="489.11 319.34 487.25 322.85 487.86 329.47 482.74 334.06 479.91 338.36 475.93 347.38" fill="none" stroke="#ed2f6a" stroke-miterlimit="10" stroke-width="2"/>
    <line x1="463.75" y1="341.51" x2="492.94" y2="355.44" fill="none" stroke="#ed2f6a" stroke-miterlimit="10" stroke-width="2"/>
    <line x1="500.36" y1="338.46" x2="486.14" y2="331.3" fill="none" stroke="#ed2f6a" stroke-miterlimit="10" stroke-width="2"/>
    <line x1="483.09" y1="334.13" x2="498.49" y2="341.33" fill="none" stroke="#ed2f6a" stroke-miterlimit="10" stroke-width="2"/>
    <line x1="488.97" y1="336.46" x2="490.33" y2="333.7" fill="none" stroke="#ed2f6a" stroke-miterlimit="10" stroke-width="2"/>
    <line x1="492.76" y1="338.46" x2="494.02" y2="335.6" fill="none" stroke="#ed2f6a" stroke-miterlimit="10" stroke-width="2"/>
    <line x1="448.21" y1="322.17" x2="461.6" y2="294.66" fill="none" stroke="#ed2f6a" stroke-miterlimit="10" stroke-width="2"/>
    <line x1="461.21" y1="293.69" x2="474.68" y2="265.97" fill="none" stroke="#ed2f6a" stroke-miterlimit="10" stroke-width="2"/>
    <line x1="471.7" y1="298.89" x2="485.35" y2="270.88" fill="none" stroke="#ed2f6a" stroke-miterlimit="10" stroke-width="2"/>
    <line x1="478.53" y1="267.23" x2="485.35" y2="253.62" fill="none" stroke="#ed2f6a" stroke-miterlimit="10" stroke-width="2"/>
    <line x1="452.39" y1="324.91" x2="447.04" y2="335.6" fill="none" stroke="#ed2f6a" stroke-miterlimit="10" stroke-width="2"/>
    <polyline points="464.75 333.22 462.9 332.3 456.75 344.37" fill="none" stroke="#ed2f6a" stroke-miterlimit="10" stroke-width="2"/>
    <path d="M507.83,244l-17.15-3.77s-6.8-1.17-4.86-6.62,10.35-20.92,10.35-20.92l0-2.93-.27-42.49s3.95-4.42,7.77-4.25,9,1.73,9.87,6,3.47,17,3.47,17l6.28,27.75s2.27,8.25-1.73,13.57-6.46,5.44-6.46,5.44l-12.92-6.28s-6.57-1.89-6.13-13.19l.09-.89" fill="none" stroke="#ed2f6a" stroke-miterlimit="10" stroke-width="2"/>
    <path d="M525.18,234s-3.47-4.07-3.45-6.7" fill="none" stroke="#ed2f6a" stroke-miterlimit="10" stroke-width="2"/>
    <line x1="496.43" y1="209.78" x2="522.29" y2="209.91" fill="none" stroke="#ed2f6a" stroke-miterlimit="10" stroke-width="2"/>
    <path d="M516.5,185.4l-20.1,4.13h-5a2.58,2.58,0,0,1-2.51-2.79c-.06-2.79.28-15.19.28-15.19l6.48-4.08" fill="none" stroke="#ed2f6a" stroke-miterlimit="10" stroke-width="2"/>
    <line x1="501.09" y1="135.49" x2="501.76" y2="145.04" fill="none" stroke="#ed2f6a" stroke-miterlimit="10" stroke-width="2"/>
    <polyline points="429.03 413.07 407.16 396.33 411.26 391.2 413.82 392.63 417.58 387.96 431.65 398.49 432.1 401.28 425.44 409.88" fill="none" stroke="#ed2f6a" stroke-miterlimit="10" stroke-width="2"/>
    <polyline points="431.66 398.3 433.83 395.85 421.52 386.52" fill="none" stroke="#ed2f6a" stroke-miterlimit="10" stroke-width="2"/>
    <polyline points="502.7 163.03 501.76 144.67 475.37 146.54" fill="none" stroke="#ed2f6a" stroke-miterlimit="10" stroke-width="2"/>
    <line x1="525.18" y1="242.26" x2="524.79" y2="233.5" fill="none" stroke="#ed2f6a" stroke-miterlimit="10" stroke-width="2"/>
    <path d="M542.62,243.15l-8.86-29.75-6.12-30.33s-4.35-8.76,10.58-8.67h.57" fill="none" stroke="#ed2f6a" stroke-miterlimit="10" stroke-width="2"/>
    <line x1="537.78" y1="174.4" x2="550.93" y2="173.2" fill="none" stroke="#ed2f6a" stroke-miterlimit="10" stroke-width="2"/>
    <path d="M504.72,116l46.21,14.43,1,9.38v7.9c-3.41,2.51-3.65,13.34-3.65,13.34l2,2.21c-.72,3.23.66,7.48.66,7.48v3.11" fill="none" stroke="#ed2f6a" stroke-miterlimit="10" stroke-width="2"/>
    <polyline points="421.52 370.88 443.23 320.2 465.8 331.01 465.94 332.05 495.95 346.31 503.8 333.56 505.48 326.32 507.99 316.01 511.67 298.49 511.57 278.01 517.33 266.83 501.75 257.95" fill="none" stroke="#ed2f6a" stroke-miterlimit="10" stroke-width="2"/>
    <polyline points="416.61 305.69 414.12 313.3 440.55 325.25" fill="none" stroke="#ed2f6a" stroke-miterlimit="10" stroke-width="2"/>
    <line x1="462" y1="259.54" x2="431.89" y2="321.33" fill="none" stroke="#ed2f6a" stroke-miterlimit="10" stroke-width="2"/>
    <line x1="471.99" y1="264.49" x2="461.6" y2="260.36" fill="none" stroke="#ed2f6a" stroke-miterlimit="10" stroke-width="2"/>
    <line x1="469.43" y1="264.15" x2="456.44" y2="292.8" fill="none" stroke="#ed2f6a" stroke-miterlimit="10" stroke-width="2"/>
  </g>
</svg>
