<?xml version="1.0" encoding="utf-8"?>
<!-- Generator: Adobe Illustrator 21.0.2, SVG Export Plug-In . SVG Version: 6.00 Build 0)  -->
<svg version="1.1" id="Layer_1" xmlns="http://www.w3.org/2000/svg" xmlns:xlink="http://www.w3.org/1999/xlink" x="0px" y="0px"
	 viewBox="0 0 1239 466" style="enable-background:new 0 0 1239 466;" xml:space="preserve">
<style type="text/css">
	.st0{fill:url(#SVGID_1_);}
	.st1{fill:url(#SVGID_2_);}
	.st2{fill:url(#SVGID_3_);}
	.st3{fill:url(#SVGID_4_);}
	.st4{fill:url(#SVGID_5_);}
	.st5{fill:url(#SVGID_6_);}
	.st6{fill:url(#SVGID_7_);}
	.st7{fill:url(#SVGID_8_);}
	.st8{fill:url(#SVGID_9_);}
	.st9{fill:url(#SVGID_10_);}
	.st10{fill:url(#SVGID_11_);}
	.st11{fill:url(#SVGID_12_);}
	.st12{fill:url(#SVGID_13_);}
	.st13{fill:url(#SVGID_14_);}
	.st14{fill:url(#SVGID_15_);}
	.st15{fill:url(#SVGID_16_);}
	.st16{fill:url(#SVGID_17_);}
	.st17{fill:url(#SVGID_18_);}
	.st18{fill:url(#SVGID_19_);}
	.st19{fill:url(#SVGID_20_);}
	.st20{fill:url(#SVGID_21_);}
	.st21{fill:url(#SVGID_22_);}
	.st22{fill:url(#SVGID_23_);}
	.st23{fill:url(#SVGID_24_);}
	.st24{fill:url(#SVGID_25_);}
	.st25{fill:url(#SVGID_26_);}
	.st26{fill:url(#SVGID_27_);}
	.st27{fill:url(#SVGID_28_);}
	.st28{display:none;}
	.st29{display:inline;fill:none;stroke:#F9E5D9;stroke-miterlimit:10;}
</style>
<title>koooooort</title>
<g id="Lag_2">

		<radialGradient id="SVGID_1_" cx="661.67" cy="242.04" r="225.21" fx="661.67" fy="326.1837" gradientTransform="matrix(1 0 0 -1 0 468)" gradientUnits="userSpaceOnUse">
		<stop  offset="0" style="stop-color:#7498AB"/>
		<stop  offset="1" style="stop-color:#FFFFFF;stop-opacity:0"/>
	</radialGradient>
	<path class="st0" d="M672.5-3.3v2.8l27,9.5L693.4,28l-23.1-7.5l-5.2,39.1L713.2,76l-1,4l-47.8-16.2l-3.1,28l41.7,13.6l-3.7,10.3
		l-38.8-12.5l-2.8,9.1l43.1,14.4l2.6-4.8l5,4.2v3.7h-4.3l-2.1,3.9l-0.3,21.5v0.5h-5.1v6.9h-5.8v3.6l-11,1.9l15.9,68.2h-6l-16.1-73.7
		c0,0,5.4-0.6,4.2-7.4s-4.2-25.2-4.2-25.2l-7-5.4l-19.9,6.2v3l2.6,0.6v3.2l-21.5,0.8v3.2l22,0.4l0.2,20.9l-6.5,3.9l-0.2,20.7
		l6.4,0.2l0.2,18.5l-2.6,1l-3.8,9.1l0.6,1l-7.8,18.9l23.8,6.4l-9.4,18.8l-8.1-4.4l5-10.5l-15.6-3.8l-6.2,13.2l-4.6-1.4l2.8-5.9
		l-25.2-12.7l-4.6,9.3l17.2,9.8l-1.6,3.3l-17-8.2l-6.8,11.2l22.5,11.9l-1.4,3.3l-25.1-12.6l-8,16.4l25.3,12.9l-1.2,2.9l-22.5-10.8
		l-5.8,24.8l19.2,9.5l31.7-63.7l4.9,2l-33.9,70.3l57.5,27.2l3-5.9l8.5,4l4.9-10.6l-2.5-2.2l5.3-9l8-41.5l-1.2-30l-15.9-8.7l5.8-12.8
		l20.9-0.5l10.8,2.1l1.5,57.3l-9.4,47.4l-17.1,37.1L658,399.7L642.5,418l-12.3,12.1c0,0-17.3,11.5-26.5-3.4L599,412l-2.4-19.3
		l2.6-0.5l8.7,32.7l18.5,0.5l29.8-34.2l9.9-23.3L589.8,333l-13.2,27.9l-5.5-4.5v-3.8l11.5-22.1l-25.7-11.3l-11.6,23.4l12.2,7.4
		l-1.2,2l11.1,6.9h2.7l24.5,16.6l0.3,13.2l-2,1.2l-0.9-5.3l-20.9-13.4l-27.9,33.9l-21.4,23.1l-25.7,28.2l-8.7,9H480l30.3-30.5
		l0.9-4.3l-26.5-34.6L460,412.9v2.2l12.3,11.1l-5,5.3l-3.8-3.2l-0.3-2.2l-8.6-8l-13.2,13.7l-8.9-8.9c3.4-4.2,4.3-10,2.3-15l7.2-2.6
		l-1.3-3.1c0,0,38.2-22.7,47-34.3l20.6-23.2l-68.6-33l2.8-5.4l68.9,32.7l6.7-12.9l5.9,2.8l7.2-15.2l-6.2-3.1l21.7-45.9l-7.2-3.4
		l-17.5,36.4l-11.6-5.7l31.2-66.8l31.2-68.1c0,0,6.2-14.4-3.6-24.5l3.6-7.7l7,0.5v7.3l1.9-0.1l4.4-41.4l-7.7-0.3
		c0,0-11-1.7-9.4-19.3s5-19.6,5-19.6l12-11.5c0,0,9-25-8,0l-0.5,0.4h-2.9l-13.4-5.2l0.1-10.6l15.4-10.8c0,0,6-5.2,6.6,1.9
		s4.3,10,4.3,10s3.2,1.3,0.5-9.6l-0.8-7.1c0,0-2.8-6.8-7.7-7.9l1.1-1.9c0,0,6.3,1.1,7.5-2.9L672.5-3.3z"/>

		<radialGradient id="SVGID_2_" cx="431.67" cy="35.94" r="42.85" gradientTransform="matrix(1 0 0 -1 0 468)" gradientUnits="userSpaceOnUse">
		<stop  offset="0" style="stop-color:#7498AB"/>
		<stop  offset="0.12" style="stop-color:#7D9FB0;stop-opacity:0.94"/>
		<stop  offset="0.32" style="stop-color:#95B0BF;stop-opacity:0.76"/>
		<stop  offset="0.6" style="stop-color:#BCCDD6;stop-opacity:0.49"/>
		<stop  offset="0.92" style="stop-color:#F1F4F6;stop-opacity:0.1"/>
		<stop  offset="1" style="stop-color:#FFFFFF;stop-opacity:0"/>
	</radialGradient>
	<path class="st1" d="M401.5,465.5l4.8-3.6l2.2,2.5l1.5-0.8l-2.4-3.1l7.2-5.5h2.1l2.2-1.5l1.5,1.8l1.8-1l-1.6-2.4l15.2-13.7l0.9-2.7
		l-8.5-8.2c0,0-8.1,9.3-24.3,15.5l-13.6,10.4l0.8,1l-15.8,11.4L401.5,465.5z"/>

		<radialGradient id="SVGID_3_" cx="420.27" cy="60.58" r="15.58" fx="405.8085" fy="60.58" gradientTransform="matrix(1 0 0 -1 0 468)" gradientUnits="userSpaceOnUse">
		<stop  offset="0" style="stop-color:#7498AB"/>
		<stop  offset="0.12" style="stop-color:#7D9FB0;stop-opacity:0.94"/>
		<stop  offset="0.32" style="stop-color:#95B0BF;stop-opacity:0.76"/>
		<stop  offset="0.6" style="stop-color:#BCCDD6;stop-opacity:0.49"/>
		<stop  offset="0.92" style="stop-color:#F1F4F6;stop-opacity:0.1"/>
		<stop  offset="1" style="stop-color:#FFFFFF;stop-opacity:0"/>
	</radialGradient>
	<path class="st2" d="M429.2,404.9c0,0,2.1,8.1,0,10h-3.8c0,0-13.6-7.9-19.3-7.9l-0.6-0.2v-5.7L429.2,404.9z"/>

		<radialGradient id="SVGID_4_" cx="383.54" cy="75.59" r="25.75" gradientTransform="matrix(1 0 0 -1 0 468)" gradientUnits="userSpaceOnUse">
		<stop  offset="0" style="stop-color:#7498AB"/>
		<stop  offset="0.12" style="stop-color:#7D9FB0;stop-opacity:0.94"/>
		<stop  offset="0.32" style="stop-color:#95B0BF;stop-opacity:0.76"/>
		<stop  offset="0.6" style="stop-color:#BCCDD6;stop-opacity:0.49"/>
		<stop  offset="0.92" style="stop-color:#F1F4F6;stop-opacity:0.1"/>
		<stop  offset="1" style="stop-color:#FFFFFF;stop-opacity:0"/>
	</radialGradient>
	<polygon class="st3" points="403.1,400.9 403.1,406.8 400.9,406.8 390.8,402.4 378.6,392.5 383.3,388.3 398.4,400 	"/>

		<radialGradient id="SVGID_5_" cx="352.86" cy="96.45" r="44.15" gradientTransform="matrix(1 0 0 -1 0 468)" gradientUnits="userSpaceOnUse">
		<stop  offset="0" style="stop-color:#7498AB"/>
		<stop  offset="0.12" style="stop-color:#7D9FB0;stop-opacity:0.94"/>
		<stop  offset="0.32" style="stop-color:#95B0BF;stop-opacity:0.76"/>
		<stop  offset="0.6" style="stop-color:#BCCDD6;stop-opacity:0.49"/>
		<stop  offset="0.92" style="stop-color:#F1F4F6;stop-opacity:0.1"/>
		<stop  offset="1" style="stop-color:#FFFFFF;stop-opacity:0"/>
	</radialGradient>
	<path class="st4" d="M377.6,386.5l-3.4,3.6l-25.4-18.6l0.8-4.6c0,0,6.4,1.3,12.6,7.9L377.6,386.5z"/>

		<radialGradient id="SVGID_6_" cx="314.56" cy="72.51" r="45.6" fx="347.9962" fy="41.5077" gradientTransform="matrix(1 0 0 -1 0 468)" gradientUnits="userSpaceOnUse">
		<stop  offset="0" style="stop-color:#7498AB"/>
		<stop  offset="0.12" style="stop-color:#7D9FB0;stop-opacity:0.94"/>
		<stop  offset="0.32" style="stop-color:#95B0BF;stop-opacity:0.76"/>
		<stop  offset="0.6" style="stop-color:#BCCDD6;stop-opacity:0.49"/>
		<stop  offset="0.92" style="stop-color:#F1F4F6;stop-opacity:0.1"/>
		<stop  offset="1" style="stop-color:#FFFFFF;stop-opacity:0"/>
	</radialGradient>
	<path class="st5" d="M347.4,367v5c0,0-5.2-1.6-12.1,4.4c0,0-10.1,4-19,15.7l-13,14v2.5l-3.8,2.8c0,0-3.7-2.8-0.7-7.2
		s16-17.5,16-17.5s7.1-9.8,16-14S338.6,367.8,347.4,367z"/>

		<radialGradient id="SVGID_7_" cx="302.32" cy="55.68" r="17.29" fx="319.5076" fy="55.68" gradientTransform="matrix(1 0 0 -1 0 468)" gradientUnits="userSpaceOnUse">
		<stop  offset="0" style="stop-color:#7498AB"/>
		<stop  offset="0.12" style="stop-color:#7D9FB0;stop-opacity:0.94"/>
		<stop  offset="0.32" style="stop-color:#95B0BF;stop-opacity:0.76"/>
		<stop  offset="0.6" style="stop-color:#BCCDD6;stop-opacity:0.49"/>
		<stop  offset="0.92" style="stop-color:#F1F4F6;stop-opacity:0.1"/>
		<stop  offset="1" style="stop-color:#FFFFFF;stop-opacity:0"/>
	</radialGradient>
	<polygon class="st6" points="300,412.3 303.9,409.4 313.1,423.1 309,426.2 	"/>

		<radialGradient id="SVGID_8_" cx="311.89" cy="41.82" r="19.4" gradientTransform="matrix(1 0 0 -1 0 468)" gradientUnits="userSpaceOnUse">
		<stop  offset="0" style="stop-color:#7498AB"/>
		<stop  offset="0.14" style="stop-color:#7FA0B2"/>
		<stop  offset="0.38" style="stop-color:#9CB6C3"/>
		<stop  offset="0.7" style="stop-color:#CCD9E0"/>
		<stop  offset="1" style="stop-color:#FFFFFF"/>
	</radialGradient>
	<polygon class="st7" points="309.9,427.1 313.9,424.1 323,437.1 319,440.4 	"/>

		<radialGradient id="SVGID_9_" cx="326.03" cy="22.45" r="12.57" gradientTransform="matrix(1 0 0 -1 0 468)" gradientUnits="userSpaceOnUse">
		<stop  offset="0" style="stop-color:#7498AB"/>
		<stop  offset="0.12" style="stop-color:#7D9FB0;stop-opacity:0.94"/>
		<stop  offset="0.32" style="stop-color:#95B0BF;stop-opacity:0.76"/>
		<stop  offset="0.6" style="stop-color:#BCCDD6;stop-opacity:0.49"/>
		<stop  offset="0.92" style="stop-color:#F1F4F6;stop-opacity:0.1"/>
		<stop  offset="1" style="stop-color:#FFFFFF;stop-opacity:0"/>
	</radialGradient>
	<polygon class="st8" points="319.7,441.1 323.9,438 342.3,465.5 335.2,465.5 	"/>

		<radialGradient id="SVGID_10_" cx="85.1" cy="96.8" r="46.35" gradientTransform="matrix(1 0 0 -1 0 468)" gradientUnits="userSpaceOnUse">
		<stop  offset="0" style="stop-color:#7498AB"/>
		<stop  offset="0.12" style="stop-color:#7D9FB0;stop-opacity:0.94"/>
		<stop  offset="0.32" style="stop-color:#95B0BF;stop-opacity:0.76"/>
		<stop  offset="0.6" style="stop-color:#BCCDD6;stop-opacity:0.49"/>
		<stop  offset="0.92" style="stop-color:#F1F4F6;stop-opacity:0.1"/>
		<stop  offset="1" style="stop-color:#FFFFFF;stop-opacity:0"/>
	</radialGradient>
	<path class="st9" d="M65.6,443.5c0,0-3.7-6.4,3.4-38l6-41l32.2,5.3l-8.5,58c0,0-8.8-4.5-9.9,4.9c0,0-4.5,1.5-4.5,4.9L65.6,443.5z"
		/>

		<radialGradient id="SVGID_11_" cx="96.52" cy="176.05" r="71.37" gradientTransform="matrix(1 0 0 -1 0 468)" gradientUnits="userSpaceOnUse">
		<stop  offset="0" style="stop-color:#7498AB"/>
		<stop  offset="0.12" style="stop-color:#7D9FB0;stop-opacity:0.94"/>
		<stop  offset="0.32" style="stop-color:#95B0BF;stop-opacity:0.76"/>
		<stop  offset="0.6" style="stop-color:#BCCDD6;stop-opacity:0.49"/>
		<stop  offset="0.92" style="stop-color:#F1F4F6;stop-opacity:0.1"/>
		<stop  offset="1" style="stop-color:#FFFFFF;stop-opacity:0"/>
	</radialGradient>
	<path class="st10" d="M77.4,354.5l32.1,5l7.6-55c0,0-14.3-17.4-30.1-16.7L77.4,354.5z"/>

		<radialGradient id="SVGID_12_" cx="144.86" cy="261.51" r="76.82" gradientTransform="matrix(1 0 0 -1 0 468)" gradientUnits="userSpaceOnUse">
		<stop  offset="0" style="stop-color:#7498AB"/>
		<stop  offset="0.12" style="stop-color:#7D9FB0;stop-opacity:0.94"/>
		<stop  offset="0.32" style="stop-color:#95B0BF;stop-opacity:0.76"/>
		<stop  offset="0.6" style="stop-color:#BCCDD6;stop-opacity:0.49"/>
		<stop  offset="0.92" style="stop-color:#F1F4F6;stop-opacity:0.1"/>
		<stop  offset="1" style="stop-color:#FFFFFF;stop-opacity:0"/>
	</radialGradient>
	<path class="st11" d="M94.2,267.4l27.2,19h0.7l3.5-3.4l43.2-81.6l-2-5.3l0.7-7.4l-18.7-13c0,0-7.9,1.4-11.2,11.4L94.2,267.4z"/>

		<radialGradient id="SVGID_13_" cx="215.2" cy="356.83" r="90.7" gradientTransform="matrix(1 0 0 -1 0 468)" gradientUnits="userSpaceOnUse">
		<stop  offset="0" style="stop-color:#7498AB"/>
		<stop  offset="0.12" style="stop-color:#7D9FB0;stop-opacity:0.94"/>
		<stop  offset="0.32" style="stop-color:#95B0BF;stop-opacity:0.76"/>
		<stop  offset="0.6" style="stop-color:#BCCDD6;stop-opacity:0.49"/>
		<stop  offset="0.92" style="stop-color:#F1F4F6;stop-opacity:0.1"/>
		<stop  offset="1" style="stop-color:#FFFFFF;stop-opacity:0"/>
	</radialGradient>
	<path class="st12" d="M152.2,163.6v8.8l19.1,13.1c0,0,3.7-4.5,9-3.9l39.5-51.5l22.4-27.4v-6.4l-17.7-18.9c0,0-13.1,6.7-34.5,35.8
		L152.2,163.6z"/>

		<radialGradient id="SVGID_14_" cx="198.39" cy="186.14" r="40.84" fx="198.39" fy="179.3155" gradientTransform="matrix(1 0 0 -1 0 468)" gradientUnits="userSpaceOnUse">
		<stop  offset="0" style="stop-color:#7498AB"/>
		<stop  offset="0.12" style="stop-color:#7D9FB0;stop-opacity:0.94"/>
		<stop  offset="0.32" style="stop-color:#95B0BF;stop-opacity:0.76"/>
		<stop  offset="0.6" style="stop-color:#BCCDD6;stop-opacity:0.49"/>
		<stop  offset="0.92" style="stop-color:#F1F4F6;stop-opacity:0.1"/>
		<stop  offset="1" style="stop-color:#FFFFFF;stop-opacity:0"/>
	</radialGradient>
	<path class="st13" d="M206.5,276.5c0,0,10.7,6.7,0.6,11.5c0,0-11.3,0.8-13.8,0s-6.4,6.4-6.4,6.4c-0.5,3.7-0.3,7.4,0.6,11
		c1,3.9,1.8,7.8,2.2,11.8c0,0-0.5,6.1-5.3,8.2c-2.6,1.3-5.8,0.4-7.3-2.1c0,0-2.4-5.5,1.4-8.9c0,0-0.1-5.1,1.2-7.4s-1.5-7.8-1.5-7.8
		c-1.1-4,0.3-8.4,3.7-10.9c5.8-4.7,0.5-0.3,0.5-0.3c1.3-5.7,5.8-10.1,11.5-11.4C203.8,274,206.5,276.5,206.5,276.5z"/>

		<radialGradient id="SVGID_15_" cx="283.89" cy="295.85" r="33.61" gradientTransform="matrix(1 0 0 -1 0 468)" gradientUnits="userSpaceOnUse">
		<stop  offset="0" style="stop-color:#7498AB"/>
		<stop  offset="0.12" style="stop-color:#7D9FB0;stop-opacity:0.94"/>
		<stop  offset="0.32" style="stop-color:#95B0BF;stop-opacity:0.76"/>
		<stop  offset="0.6" style="stop-color:#BCCDD6;stop-opacity:0.49"/>
		<stop  offset="0.92" style="stop-color:#F1F4F6;stop-opacity:0.1"/>
		<stop  offset="1" style="stop-color:#FFFFFF;stop-opacity:0"/>
	</radialGradient>
	<path class="st14" d="M277.9,201.8c0,0-2.6,6.2-6.9-0.6s3.5-8,3.5-8c1.6-0.1,3.2,0.6,4.2,1.9c1.6,2.2,2.8-3.7,2.8-3.7V184
		c0,0-3.7-3.1-2-7.4c0,0-1.3-7.5,2.5-10.2s4.3,1.7,4.3,1.7s-0.1,5.6-2.2,7.1s1.1,7.3,1.1,7.3s3.5,5.5,3.5,5.8s2.3,7.3-3,10.1
		C285.6,198.4,286.1,202.9,277.9,201.8z"/>

		<radialGradient id="SVGID_16_" cx="337.0111" cy="342.1855" r="16.6104" gradientTransform="matrix(1 0 0 -1 0 468)" gradientUnits="userSpaceOnUse">
		<stop  offset="0" style="stop-color:#7498AB"/>
		<stop  offset="0.12" style="stop-color:#7D9FB0;stop-opacity:0.94"/>
		<stop  offset="0.32" style="stop-color:#95B0BF;stop-opacity:0.76"/>
		<stop  offset="0.6" style="stop-color:#BCCDD6;stop-opacity:0.49"/>
		<stop  offset="0.92" style="stop-color:#F1F4F6;stop-opacity:0.1"/>
		<stop  offset="1" style="stop-color:#FFFFFF;stop-opacity:0"/>
	</radialGradient>
	<path class="st15" d="M339,121.9c0,0-10.5-2.5-15.1,3.6s12.1,4.6,12.1,4.6l11.3-0.3c0,0,8.3-4.1,0-6.8c-1.4,0.1-2.8,0.3-4.2,0.6
		C339.3,124.3,341.9,122.4,339,121.9z"/>

		<radialGradient id="SVGID_17_" cx="365.01" cy="365.26" r="29.96" fx="385.0475" fy="342.9867" gradientTransform="matrix(1 0 0 -1 0 468)" gradientUnits="userSpaceOnUse">
		<stop  offset="0" style="stop-color:#7498AB"/>
		<stop  offset="0.12" style="stop-color:#7D9FB0;stop-opacity:0.94"/>
		<stop  offset="0.32" style="stop-color:#95B0BF;stop-opacity:0.76"/>
		<stop  offset="0.6" style="stop-color:#BCCDD6;stop-opacity:0.49"/>
		<stop  offset="0.92" style="stop-color:#F1F4F6;stop-opacity:0.1"/>
		<stop  offset="1" style="stop-color:#FFFFFF;stop-opacity:0"/>
	</radialGradient>
	<path class="st16" d="M365.5,89.5c0,0-9.2-4.3-10.6,6l-2.7,12.7l-2.7,8c0,0-0.8,7.6,4.2,6.5s3.8-7.3,3.8-7.3l0.4-8.5l3.7-10.4
		c4.3-1.6,9.1-1.1,13,1.3c6.3,4.1,14.6,1.5,14.6,1.5s4.8-3.4-0.7-6.6S366.4,88.6,365.5,89.5z"/>

		<radialGradient id="SVGID_18_" cx="405.6" cy="397.63" r="21.07" gradientTransform="matrix(1 0 0 -1 0 468)" gradientUnits="userSpaceOnUse">
		<stop  offset="0" style="stop-color:#7498AB"/>
		<stop  offset="0.12" style="stop-color:#7D9FB0;stop-opacity:0.94"/>
		<stop  offset="0.32" style="stop-color:#95B0BF;stop-opacity:0.76"/>
		<stop  offset="0.6" style="stop-color:#BCCDD6;stop-opacity:0.49"/>
		<stop  offset="0.92" style="stop-color:#F1F4F6;stop-opacity:0.1"/>
		<stop  offset="1" style="stop-color:#FFFFFF;stop-opacity:0"/>
	</radialGradient>
	<path class="st17" d="M410.1,65.8c0,0,8.5,1.6,0.9,5.4s-5.8,7.4-5.8,7.4s0.2,3.2-4.4,2.9c0,0-1.4,1.5-1.4,5.3s-5.5,7.8-5.5,7.8
		s-5.9-0.6,0.5-5.3s-8.1-14.7-8.1-14.7s-4.4-4.1,3.2-3.2c0,0,11.8,8.3,11.3,0.8S410.1,65.8,410.1,65.8z"/>

		<radialGradient id="SVGID_19_" cx="526.9" cy="414.73" r="102.75" gradientTransform="matrix(1 0 0 -1 0 468)" gradientUnits="userSpaceOnUse">
		<stop  offset="0" style="stop-color:#7498AB"/>
		<stop  offset="0.12" style="stop-color:#7D9FB0;stop-opacity:0.94"/>
		<stop  offset="0.32" style="stop-color:#95B0BF;stop-opacity:0.76"/>
		<stop  offset="0.6" style="stop-color:#BCCDD6;stop-opacity:0.49"/>
		<stop  offset="0.92" style="stop-color:#F1F4F6;stop-opacity:0.1"/>
		<stop  offset="1" style="stop-color:#FFFFFF;stop-opacity:0"/>
	</radialGradient>
	<path class="st18" d="M527.4,44.8l-20.9-15.5c0,0-12.5-5.9-12.2,7.7l-3.6,22.1l-0.8,3.4l-22,17.6c0,0-5.1,5.2,2.5,10.7
		s21.2,17.9,21.2,17.9l4.5,27.5c0,0,0.9,10.4,11.5,2.4s21.2-14.6,21.2-14.6l8.5,1.1l-2.6,9.5c0,0-2.8,4.8-6.8-0.8l-3.8-3.7
		l-13.9,11.6c0,0-6,0.6-7.3,5.9l-4.6,4.9c0,0-2.7,6,3.8,4l21.9-18.2l8.4,4.6c0,0,5.1,2.7,7.3-3.8c1.3-3.6,2.2-7.3,2.7-11.1l9.3-0.2
		c0,0,2.5-7.3,6.2-1.8l3.5-0.2v-7.1c0,0,8.4-20.1,0-26.1s-4.6-12-4.6-12s1.8-3.3,6.9-4.6l1.4-10.8l1.2-17.3c0,0,1.8-6.8-8.6-6.6
		s-29,4.7-29,4.7l-2,7.5l6.4,0.4l5.7-3.7l18.1-0.7L551.3,73l-5.9,3l0.7,17.5l4.9,2l6.2,22.8l-21-0.9l-2.4-4.4l-7.3,2.9l-5.8,0.2
		l-0.5,5.5L506.5,132c0,0-4.7,4.9-6.2-3.5s-2.2-16.4-2.2-16.4l2.9-3.7L494,97.2h-6.4L475,86.6c0,0-5.3-1.8,0.7-6s12.4-9.8,12.4-9.8
		l5.6-0.2l6.6-10.8l-2.5-5.1l2.4-15.9c0,0-0.5-6.8,6.6-1.5c7.1,5.3,11.9,8.6,11.9,8.6l0.5,5.1l6.6,2L527.4,44.8z"/>

		<radialGradient id="SVGID_20_" cx="464.75" cy="369.61" r="48.21" gradientTransform="matrix(1 0 0 -1 0 468)" gradientUnits="userSpaceOnUse">
		<stop  offset="0" style="stop-color:#7498AB"/>
		<stop  offset="0.12" style="stop-color:#7D9FB0;stop-opacity:0.94"/>
		<stop  offset="0.32" style="stop-color:#95B0BF;stop-opacity:0.76"/>
		<stop  offset="0.6" style="stop-color:#BCCDD6;stop-opacity:0.49"/>
		<stop  offset="0.92" style="stop-color:#F1F4F6;stop-opacity:0.1"/>
		<stop  offset="1" style="stop-color:#FFFFFF;stop-opacity:0"/>
	</radialGradient>
	<path class="st19" d="M488.1,139.8c0,0,6.6,8.3,5.4-1.8s-3.4-12-3.4-12l-0.4-9.5l-13.4-1.2l4.7-10.5l-15.4-14.2h-4.9l-3.9-3.5
		c0,0-4.6-1.4-1.9,3.7s11,9.4,11,9.4l8.7,6.9l-2.2,3.7l0.1,4.9l3.9,5.3l9.1,1.1C485.3,122.1,486.4,139.5,488.1,139.8z"/>

		<radialGradient id="SVGID_21_" cx="477.26" cy="415.55" r="44.54" gradientTransform="matrix(1 0 0 -1 0 468)" gradientUnits="userSpaceOnUse">
		<stop  offset="0" style="stop-color:#7498AB"/>
		<stop  offset="0.12" style="stop-color:#7D9FB0;stop-opacity:0.94"/>
		<stop  offset="0.32" style="stop-color:#95B0BF;stop-opacity:0.76"/>
		<stop  offset="0.6" style="stop-color:#BCCDD6;stop-opacity:0.49"/>
		<stop  offset="0.92" style="stop-color:#F1F4F6;stop-opacity:0.1"/>
		<stop  offset="1" style="stop-color:#FFFFFF;stop-opacity:0"/>
	</radialGradient>
	<path class="st20" d="M452.9,79.6c0,0-2.8,4.8,1.1,2.9c2.9-1.5,5.6-3.3,8.1-5.3c0,0,4.6,2.1,6.6-3.1l11.4-7.6c0,0,3-3.4-1.6-4.8
		c0,0,1.2-5.1-1.7-5.6c0,0,0.1-2.3,1.8-2.7s5.1-0.4,5.4-3.5c0,0,0.4,2.8,2.6,2c1.2-0.3,2.2-1,2.9-2c0.6-1.8-0.3-3.7-2-4.5
		c0.4-1.3,1.5-2.2,2.9-2.3c0,0,0.5-2.8-1.4-3l-1.4,0.7L472,57.9l1.8,5.7l-8.5,6.3c0,0-0.5,3.2-4.6,2.9s-0.4-0.1-0.4-0.1L452.9,79.6z
		"/>

		<radialGradient id="SVGID_22_" cx="679.25" cy="151.05" r="145.77" fx="679.25" fy="151.0547" gradientTransform="matrix(1 0 0 -1 0 468)" gradientUnits="userSpaceOnUse">
		<stop  offset="0" style="stop-color:#7498AB"/>
		<stop  offset="1" style="stop-color:#FFFFFF;stop-opacity:0"/>
	</radialGradient>
	<path class="st21" d="M613.5,465.5l17.2-12.2c0,0,2-4.8,11.7,1.2c0,0,13.6,0.5,15-2.2s3.9-13.1,2.1-17.9s-4.2-5.2-0.2-12.5
		s6.7-9.8,6.7-9.8c1.7-2.2,4.3-3.4,7.1-3.2c4.4,0.4,5,1.3,5,1.3s3.2,0.3,4.2-0.5s10.9-3,11-5.3s0-10.6,0-10.6s0.9-5.1-7.6-13.8
		c0,0,1.9-14.7,9.8-20.1c0,0,12.4-1.1,16.7-6.2s4.7-5,1-12.3s-0.5,0-0.5,0l-1.5-5.9c0,0,0.8-1.8-8.1-8.4l-0.1-1.7h2
		c0,0-1.6-14.1,8.2-20.4c0,0,7.5-2,7.6-6.9c-0.1-1.1,0.5-2.1,1.4-2.6c1.7-0.8,6.8-6.6-1-13.5c0,0-3.7-1.9-4.1-4.6s-1.2-4.2-7-7.3
		c-2.2-6.6-2.9-13.7-2-20.7c0,0,10.7-5.6,11.8-11.4s5.7-11.5,11.5-9.9c0,0,2.8,4.2,0.7,21.5c0,0-0.5,7,2.8,37.8c0,0-0.8,21-5.7,34.8
		c0,0-0.7,1.4-0.4,12.6s-10.2,34.7-10.2,34.7L705.3,398c0,0-0.8,14.6-23.2,36l-12.6,17.8c0,0-5.7,9.4-12.3,13.8L613.5,465.5z"/>

		<radialGradient id="SVGID_23_" cx="735.56" cy="134.93" r="84.38" fx="661.6641" fy="134.93" gradientTransform="matrix(1 0 0 -1 0 468)" gradientUnits="userSpaceOnUse">
		<stop  offset="0" style="stop-color:#7498AB"/>
		<stop  offset="0.12" style="stop-color:#7D9FB0;stop-opacity:0.94"/>
		<stop  offset="0.32" style="stop-color:#95B0BF;stop-opacity:0.76"/>
		<stop  offset="0.6" style="stop-color:#BCCDD6;stop-opacity:0.49"/>
		<stop  offset="0.92" style="stop-color:#F1F4F6;stop-opacity:0.1"/>
		<stop  offset="1" style="stop-color:#FFFFFF;stop-opacity:0"/>
	</radialGradient>
	<path class="st22" d="M666.7,465.5l16.9-21.7c0,0,15.3,0.7,10.2-13c0,0,16.7-22.9,21.2-35.8c0,0,18.3-4.2,9.2-21.3
		c0,0,8.6-20.1,10.8-38.5c0,0,15-12.9,4.5-24.2l2.4-14.6l-0.4-28.7c0,0,10.3-7.3-1.8-14.8v-2.3c0,0,21.9,7.5,5,19.7l0.8,21.1
		c0,0,6.9-0.9-0.2,5.1l-1.7,12.3c0,0,24.1,15.5-6.3,31.1c0,0,1.7,19.5-8.7,32.6c0,0,20.8,20.3-11.8,27.5c0,0-6,21.4-19,31.8
		c0,0,9,16.7-13.2,16.9l-12.9,16.7L666.7,465.5z"/>

		<radialGradient id="SVGID_24_" cx="846.63" cy="210.83" r="226.48" fx="819.3412" fy="146.3239" gradientTransform="matrix(1 0 0 -1 0 468)" gradientUnits="userSpaceOnUse">
		<stop  offset="0" style="stop-color:#7498AB"/>
		<stop  offset="1" style="stop-color:#FFFFFF;stop-opacity:0"/>
	</radialGradient>
	<path class="st23" d="M933.5-3.3l4,15.8c0,0,1.9,4.7-2.4,6.6s-8.9,4.1-8.9,4.1l-2.4-0.5l-10,7.2l-0.4,2.3l-7.7,3.5l-24.2,17
		c0,0-5.1,2.3-6.4,10c0,0-0.1,2.3,1.4,2.6l-0.3,6.9l-2.7,4.7l-9.1,26.1l-2.6,1.2v0.7l9.4,5.3l-1.4,2.3l-13.9-6.7
		c0,0-2.4-1.5-6.5,0.3s-39,11.2-39,11.2l7.6,26.6l-5.7,1.6l-5.2-15.4L767.1,142l-27.6,0.2l1.1,29.3c0,0,0,3.9,9.6,1.7
		s38.3-6.8,41.8,6.4l1,0.3l19.7-9.1l1-12h0.9l0.1,12.9c0,0,1.2,1.4,3.9,0.1s30.5-16.6,30.5-16.6l-0.1-3.2l21.9-11.3l1,2l4.7,0.2
		l6.7,10.5l5.1-3.7l-6.5-12.2l9.7-18.7c0,0,9.5-0.2,19.1,17.5l6.6-1.4l47.7-32.4l34.9,56.3l-86.4,55l-0.4,1.4l-19.9,12.5l-2.9,6.4
		l-7.6-0.2l-11.8,7.9l-19,23.1L831.8,288l-7.3,9.2l0.1,4l8.1,14.3l-3.4,2.1l-3.1-4.8l-8.8,5l7.3,11.7l8.4-5.2l-2.5-4.2l3.1-1.9
		l10.6,21.5l12.3,25.3l12.8,26.2l10.8,20.9l6.8,11.4l0.6,0.4h8.9l0.1,1.1l-7.6,2.8l-0.3,1.8l6.1,11l0.7,5l11,19.8l51.8-0.1
		l-21.2-24.6l-16.1-35.1l-19-38.7l-20.1-38.3l-8.5-18.9l28.3-33.4l24.6-15.1l33.5-21.9l28.9-17.6l8-5l14,29.8l4.4-0.1l19.2-21
		l-0.3-2.7l0.3-0.4l4.6,7.1l-0.6,0.6l-3-3l-19.7,20.6l0.3,2.6l-2.4,2.9l9.4,22.4l9.1,21.2l6.3,13.8l6.3,0.3v1l-11.6,0.3l-38.9,14
		l-0.1,2.8h-0.8l-3.6-1.7c0,0-8.8,1.6-10.7,9.9l7.5,12.9l0.1,16.6l2.4,1.5l-22.8,41.2l20.9-0.4l19.2-27l11.6,3.9l1.1-2.7l24,10.5
		l14.1-47.7l-3.7-7.7l0.4-0.4l3.8,7l44.9-7l39.7,62.1l-4.6,4.7l5.2,7.9c0,0,4.1,7.4-4.3,12.9l-15.5,12.1l-7.4,27.9l168.2-0.1
		l0.2-468.6L933.5-3.3z"/>

		<radialGradient id="SVGID_25_" cx="711.65" cy="284.85" r="41.39" fx="711.65" fy="284.8454" gradientTransform="matrix(1 0 0 -1 0 468)" gradientUnits="userSpaceOnUse">
		<stop  offset="0" style="stop-color:#7498AB"/>
		<stop  offset="1" style="stop-color:#FFFFFF;stop-opacity:0"/>
	</radialGradient>
	<path class="st24" d="M709.7,218.2c0,0-13.7,4.8-15.1-17.2c0,0-1.3-0.5-4.6,0.3s-0.5-5.6,4.2-10S702,180,702,180s0.5-6.6,5.8-6.6
		s10.2,2.3,11.5,9s5.6,10.9,5.5,18s5.7,17.8,5.7,17.8s1.4,9.7-9.7,9.6c0,0-6.3-2.4-7.5-5.4S710.2,222.9,709.7,218.2z"/>

		<radialGradient id="SVGID_26_" cx="228.2677" cy="21.6413" r="14.467" fx="216.1318" fy="21.6413" gradientTransform="matrix(1 0 0 -1 0 468)" gradientUnits="userSpaceOnUse">
		<stop  offset="0" style="stop-color:#7498AB"/>
		<stop  offset="0.12" style="stop-color:#7D9FB0;stop-opacity:0.94"/>
		<stop  offset="0.32" style="stop-color:#95B0BF;stop-opacity:0.76"/>
		<stop  offset="0.6" style="stop-color:#BCCDD6;stop-opacity:0.49"/>
		<stop  offset="0.92" style="stop-color:#F1F4F6;stop-opacity:0.1"/>
		<stop  offset="1" style="stop-color:#FFFFFF;stop-opacity:0"/>
	</radialGradient>
	<path class="st25" d="M222.8,433.2c0,0-0.7-8.9-6,3.4s12.2,11,12.2,11s2.4,2.4,2.2,9.6s2.2,5,2.2,5s4.3-3.7,4.5-8.6
		c0-1.3,0.8-2.5,2.1-3c2.2-0.8-1.1-10.3-5.3-7.9s-5.7-5.8-5.7-5.8s-1.5-1.5-4.3-0.6S222.8,433.2,222.8,433.2z"/>

		<radialGradient id="SVGID_27_" cx="323.15" cy="267.85" r="18.34" gradientTransform="matrix(1 0 0 -1 0 468)" gradientUnits="userSpaceOnUse">
		<stop  offset="0" style="stop-color:#7498AB"/>
		<stop  offset="0.12" style="stop-color:#7D9FB0;stop-opacity:0.94"/>
		<stop  offset="0.32" style="stop-color:#95B0BF;stop-opacity:0.76"/>
		<stop  offset="0.6" style="stop-color:#BCCDD6;stop-opacity:0.49"/>
		<stop  offset="0.92" style="stop-color:#F1F4F6;stop-opacity:0.1"/>
		<stop  offset="1" style="stop-color:#FFFFFF;stop-opacity:0"/>
	</radialGradient>
	<polygon class="st26" points="313,203.4 309.7,207 321.4,217.2 335.1,200.6 324.7,192.2 321,196.6 328,202 320.8,209.9 	"/>

		<radialGradient id="SVGID_28_" cx="813.48" cy="327.38" r="89.13" gradientTransform="matrix(1 0 0 -1 0 468)" gradientUnits="userSpaceOnUse">
		<stop  offset="0" style="stop-color:#94C9ED"/>
		<stop  offset="1" style="stop-color:#FFFFFF;stop-opacity:0"/>
	</radialGradient>
	<polygon class="st27" points="825.5,73.1 822.4,80.8 864.9,95.5 867.7,86.9 	"/>
</g>
<g id="Lag_3" class="st28">
	<polyline class="st29" points="630.1,139.9 652,139.9 652,142.8 658.1,142.8 657.2,133.2 660.3,160.2 664.3,160.2 669.4,164.4
		672.2,182 651.7,185.3 651.8,164.7 655.1,160.2 659.9,160.2 	"/>
	<polyline class="st29" points="651.8,164.8 645.4,168.8 645.4,184.9 651.5,185.5 652.3,199 652.6,205.5 677,205.2 672.2,182.2
		675.5,182.2 	"/>
	<path class="st29" d="M677.1,205.2l1.9,9.5c0,0,0.1,12.6-8.3,13.3s-18.4-13.2-18.4-13.2l0.4-9.2"/>
	<polyline class="st29" points="652.2,208.5 649.1,208.8 646.9,215.7 641,233.6 663.1,239.7 669.7,228.1 	"/>
	<path class="st29" d="M665.4,236.4h21.6l11.9,3l0.5,10.8l1.7,49.7l-9.8,48.7l-19.1,38.8l-36.4,41.9c0,0-15.1,17.2-34.2,0.8
		L580.1,415l24.4-36.1l1.6-8.2l-1.3-11.7l21.6-42.6l23.2-48.1l14.5-30.6"/>
	<polyline class="st29" points="655.8,256 671.7,264.5 664.2,276.3 635,261.4 641.5,248.2 	"/>
	<line class="st29" x1="619" y1="254.9" x2="635" y2="261"/>
	<polyline class="st29" points="631.7,259.9 618.2,288.2 663.4,309.6 667.3,292.8 664.1,276.1 	"/>
	<line class="st29" x1="667" y1="293" x2="643.3" y2="282"/>
	<line class="st29" x1="628.1" y1="292.9" x2="641.6" y2="264.8"/>
	<line class="st29" x1="641.6" y1="299.3" x2="643.3" y2="296.4"/>
	<polyline class="st29" points="663.4,309.7 661,320.3 658.8,330.6 648.6,348.6 617.6,333.8 622.3,324.6 653.1,340 	"/>
	<polyline class="st29" points="631.9,340.2 635.8,331.4 643.3,324.2 643.9,311.8 647.9,302.3 	"/>
	<line class="st29" x1="661" y1="319.4" x2="644.1" y2="311.4"/>
	<polyline class="st29" points="657.9,332.2 642.7,324.7 639.6,327.7 655.9,335.7 	"/>
	<line class="st29" x1="646.8" y1="327" x2="644.8" y2="330"/>
	<line class="st29" x1="650.5" y1="328.9" x2="648.8" y2="331.9"/>
	<polyline class="st29" points="622.2,324.4 573.8,300.3 576.5,288 598.3,298.3 608.1,278.4 	"/>
	<polyline class="st29" points="605,315.6 618.3,288 613.8,285.7 627,258.2 	"/>
	<polyline class="st29" points="608.9,318.1 604,328.5 617.5,334.1 	"/>
	<polyline class="st29" points="580.1,331.4 571,327 569,328.5 558,323.4 549,341.5 558.2,346.1 563.8,335.7 	"/>
	<polyline class="st29" points="558.4,346.2 569,352.6 570.2,357.6 594.8,374.4 597.2,375.5 598.1,388.5 	"/>
	<polyline class="st29" points="573.8,300.5 571.7,309.3 588,317.6 598.2,298.4 	"/>
	<line class="st29" x1="660.9" y1="374.3" x2="609.1" y2="350.6"/>
	<path class="st29" d="M605,358.9c0,0,8.7,3.6,11-5.1"/>
	<line class="st29" x1="643" y1="374.3" x2="645.8" y2="367.4"/>
	<polyline class="st29" points="604.8,378.7 612.1,408.1 613.8,422.3 	"/>
	<polyline class="st29" points="606.9,409.6 621.4,407.1 626.4,409 	"/>
	<line class="st29" x1="608" y1="278.6" x2="619.2" y2="254.4"/>
	<polygon class="st29" points="593.8,252.8 589.4,261 610.9,272.3 615.2,263.1 	"/>
	<polyline class="st29" points="607.4,279.9 583.5,268.3 578,279.4 601.5,291.7 	"/>
	<polygon class="st29" points="618.2,256.3 597.3,244.8 599.8,239.1 621.1,249.6 	"/>
	<path class="st29" d="M673.7,227.1c0,0,10.4-0.3,13.3,9.2"/>
	<path class="st29" d="M677.4,222.7c0,0-0.8,2.6,1.8,5.5"/>
	<line class="st29" x1="568.9" y1="352.3" x2="579.9" y2="330.7"/>
</g>
</svg>
